<svg version="1.1" id="Capa_1" xmlns="http://www.w3.org/2000/svg" xmlns:xlink="http://www.w3.org/1999/xlink"
 viewBox="0 0 612.006 612.006" style="enable-background:new 0 0 612.006 612.006;">
				<path fill='#3F96A7' d="M423.23,437.955c-3.769,0-7.53-1.438-10.41-4.311L178.371,199.177c-5.748-5.747-5.748-15.068,0-20.815
					c5.753-5.753,15.068-5.753,20.815,0l234.45,234.46c5.753,5.753,5.753,15.075,0,20.815
					C430.762,436.518,426.999,437.955,423.23,437.955z"/>
				<path fill='#3F96A7' d="M188.781,437.955c-3.769,0-7.531-1.438-10.411-4.311c-5.748-5.747-5.748-15.069,0-20.816l234.449-234.466
					c5.753-5.753,15.068-5.753,20.815,0c5.753,5.747,5.753,15.068,0,20.815l-234.45,234.467
					C196.313,436.518,192.544,437.955,188.781,437.955z"/>
</svg>
